<svg xmlns="http://www.w3.org/2000/svg" width="858.071" height="828.656" viewBox="76.717 89.979 858.071 828.656"><defs><clipPath id="a"><path fill="currentColor" d="M917 657.5q-41 157.5-189.5 223T438 899q-141-47-240.5-150t-118-256q-18.5-153 86-272T422 91.5Q574 81 712.5 143t192 209.5Q958 500 917 657.5Z"/></clipPath></defs><g clip-path="url(#a)"><path fill="#FEB129" d="M917 657.5q-41 157.5-189.5 223T438 899q-141-47-240.5-150t-118-256q-18.5-153 86-272T422 91.5Q574 81 712.5 143t192 209.5Q958 500 917 657.5Z"/></g></svg>