<svg xmlns="http://www.w3.org/2000/svg" width="850.341" height="856.426" viewBox="68.867 66.455 850.341 856.426"><defs><clipPath id="a"><path fill="currentColor" d="M899 649.5q-43 149.5-181 227T439 902q-141-52-253.5-149T69 499q-4-157 112-254T440 89.5Q583 31 714 121t179.5 234.5Q942 500 899 649.5Z"/></clipPath></defs><g clip-path="url(#a)"><path fill="#FEB129" d="M899 649.5q-43 149.5-181 227T439 902q-141-52-253.5-149T69 499q-4-157 112-254T440 89.5Q583 31 714 121t179.5 234.5Q942 500 899 649.5Z"/></g></svg>