<svg xmlns="http://www.w3.org/2000/svg" width="884.534" height="807.171" viewBox="57.125 108.702 884.534 807.171"><defs><clipPath id="a"><path fill="currentColor" d="M896.5 632.5Q816 765 696.5 852T430 907.5q-147-31.5-266-137t-105.5-266Q72 344 180.5 239t250-125q141.5-20 281 35.5t202.5 203q63 147.5-17.5 280Z"/></clipPath></defs><g clip-path="url(#a)"><path fill="#FEB129" d="M896.5 632.5Q816 765 696.5 852T430 907.5q-147-31.5-266-137t-105.5-266Q72 344 180.5 239t250-125q141.5-20 281 35.5t202.5 203q63 147.5-17.5 280Z"/></g></svg>