<svg xmlns="http://www.w3.org/2000/svg" width="821.026" height="803.233" viewBox="101.788 87.194 821.026 803.233"><defs><clipPath id="a"><path fill="currentColor" d="M878.5 629.5q-69.5 129.5-189 199t-264.5 61q-145-8.5-238-125T102.5 503Q111 358 182 215T411.5 89q158.5 17 308 59t189 197q39.5 155-30 284.5Z"/></clipPath></defs><g clip-path="url(#a)"><path fill="#FEB129" d="M878.5 629.5q-69.5 129.5-189 199t-264.5 61q-145-8.5-238-125T102.5 503Q111 358 182 215T411.5 89q158.5 17 308 59t189 197q39.5 155-30 284.5Z"/></g></svg>